<svg xmlns="http://www.w3.org/2000/svg" xmlns:xlink="http://www.w3.org/1999/xlink" viewBox="0 0 1920 1080"><defs><style>.cls-1,.cls-14,.cls-25,.cls-32,.cls-33,.cls-4{fill:none;}.cls-2,.cls-9{isolation:isolate;}.cls-23,.cls-24,.cls-3{fill:#231f20;}.cls-3{opacity:0.05;}.cls-23,.cls-24,.cls-3,.cls-4,.cls-5,.cls-7,.cls-8{mix-blend-mode:multiply;}.cls-4{stroke:#000;stroke-linecap:round;stroke-linejoin:round;stroke-width:5px;stroke-dasharray:0 20;}.cls-4,.cls-5,.cls-8{opacity:0.15;}.cls-6{clip-path:url(#clip-path);}.cls-19,.cls-24,.cls-7{opacity:0.1;}.cls-20,.cls-22,.cls-9{fill:#fff;}.cls-9{opacity:0.2;}.cls-10{fill:#30bfef;}.cls-11,.cls-13,.cls-17{fill:#e0e0e0;}.cls-12{fill:#b6b6b6;}.cls-13,.cls-22{opacity:0.4;}.cls-14,.cls-32{stroke:#b6b6b6;}.cls-14,.cls-25,.cls-32,.cls-33{stroke-miterlimit:10;}.cls-14{stroke-width:5.16px;}.cls-15{clip-path:url(#clip-path-2);}.cls-16{fill:#f6921e;}.cls-17{opacity:0.6;}.cls-18{fill:#aaaaa1;}.cls-19{mix-blend-mode:soft-light;}.cls-21{fill:#7d7c71;}.cls-23{opacity:0.2;}.cls-25{stroke:#7d7c71;stroke-width:0.64px;}.cls-26{fill:#efeeef;}.cls-27{fill:#e7262b;}.cls-28{fill:#b62029;}.cls-29{fill:#b8babc;}.cls-30{clip-path:url(#clip-path-3);}.cls-31{fill:#abacaf;}.cls-32,.cls-33{stroke-width:2.64px;}.cls-33{stroke:#9e9d9d;}</style><clipPath id="clip-path"><path d="M1869.49,38.6c.75,97.56-170.52,197.32-170.52,197.32l-36.45-38.66S1772.15,32.14,1869.49,38.6Z"/></clipPath><clipPath id="clip-path-2"><path id="SVGID" class="cls-1" d="M1253.43,658.92s36.55-306,264-227.69c222.33,76.55,37.35,231.4,37.35,231.4h-.65L1538.7,919l-259.62.15L1281,820l27.37-160.36Z"/></clipPath><clipPath id="clip-path-3"><path id="SVGID-2" data-name="SVGID" class="cls-1" d="M580,633c71.24,67.26,24.54,260.74,24.54,260.74l-53.35-.44S507.65,699.07,580,633Z"/></clipPath></defs><title>sf copy 2</title><g class="cls-2"><g id="Layer_1" data-name="Layer 1"><ellipse class="cls-3" cx="1452.75" cy="919.8" rx="176.33" ry="10.45"/><path class="cls-4" d="M342.52,413.09c41.85,29.12,69.71,77.48,73.91,128.29,1.06,12.77.59,26.11-5,37.64s-17.31,20.79-30.11,20.27c-13.75-.56-25.16-12.31-29.05-25.51s-1.63-27.43,2.15-40.66A182.62,182.62,0,0,1,578,407.12"/><g class="cls-5"><polyline points="1795.2 126.12 1824.21 188.58 1796.2 215 1770 149.89"/><polygon points="1713.46 293.02 1720.69 300.69 1845.87 174.36 1842.77 171.07 1713.46 293.02"/><path d="M1722.42,291.81a14.69,14.69,0,0,1-.61,20.76l-20.15-21.36A14.68,14.68,0,0,1,1722.42,291.81Z"/><polyline points="1777.77 107.63 1717.12 75.02 1689.11 101.44 1752.56 131.4"/><polygon points="1606.37 179.46 1599.14 171.79 1732.58 54.23 1735.68 57.52 1606.37 179.46"/><path d="M1608.1,170.58a14.69,14.69,0,0,0-20.76-.61l20.15,21.37A14.69,14.69,0,0,0,1608.1,170.58Z"/><path d="M1831.22,84.74c.34.24.73.47,1.09.7,1.79,2.1,3.63,4.15,5.56,6.11a98.6,98.6,0,0,0,11.31,9.83C1804,174.76,1699,235.92,1699,235.92l-36.45-38.66s64.62-97.32,138.69-139.6A89.51,89.51,0,0,0,1831.22,84.74Z"/><path d="M1800.46,58.15c22.64-13,46.17-21.07,69-19.55.18,22.92-9.2,45.93-23.56,67.77Z"/><circle cx="1783.75" cy="119.46" r="25.51"/><circle cx="1783.75" cy="119.46" r="18.71"/><path d="M1744.11,205.87c-25.71,18.71-45.14,30-45.14,30l-36.45-38.66s12.45-18.73,32.64-43.3c0,0,22.53,2.62,35.89,15.8S1744.11,205.87,1744.11,205.87Z"/><path d="M1869.49,38.6c.75,97.56-170.52,197.32-170.52,197.32l-36.45-38.66S1772.15,32.14,1869.49,38.6Z"/><g class="cls-6"><path class="cls-7" d="M1849.49,111.53c0-.23,2.72-22.67-11.18-39.24-9.25-11.06-23.71-17.08-43-18l.14-3c20.15,1,35.38,7.4,45.16,19.09,14.74,17.6,12,40.57,11.83,41.53Z"/><path class="cls-7" d="M1823.65,135.9c0-.23,2.72-22.67-11.18-39.24-9.25-11-23.71-17.08-43-18l.13-3c20.16,1,35.4,7.39,45.16,19.09,14.74,17.6,12,40.56,11.83,41.53Z"/><path d="M1742.92,212c0-.22,2.73-22.66-11.17-39.23-9.25-11-23.72-17.09-43-18l.14-3c20.15,1,35.38,7.38,45.16,19.08,14.74,17.61,12,40.57,11.83,41.54Z"/><path d="M1698.87,249.9c0-.22,2.72-22.66-11.18-39.23-9.24-11.07-23.7-17.09-43-18l.14-3c20.16,1,35.39,7.38,45.16,19.08,14.75,17.61,12,40.57,11.84,41.54Z"/></g><path class="cls-7" d="M1677,212.64l-14.5-15.38S1769.84,35.72,1866.4,38.56C1838.45,53.48,1732.53,114.74,1677,212.64Z"/></g><polygon class="cls-8" points="319.18 967.03 198.39 925.55 162.05 1047.99 164.16 920.29 36.49 923.57 158.59 886.12 116.03 765.71 189.37 870.26 290.74 792.57 213.97 894.63 319.18 967.03"/><polygon class="cls-8" points="1607.69 973.88 1701.48 918.72 1642.41 827.35 1723.85 899.5 1792.51 815.09 1749.05 914.84 1850.55 954.05 1742.25 943.54 1736.32 1052.19 1712.85 945.95 1607.69 973.88"/><polygon class="cls-8" points="1749.03 586.3 1784.96 616.22 1824.51 591.29 1807.16 634.71 1843.09 664.63 1796.44 661.54 1779.09 704.96 1767.61 659.63 1720.95 656.55 1760.51 631.62 1749.03 586.3"/><polygon class="cls-8" points="263.82 591.87 299.75 621.79 339.3 596.86 321.95 640.28 357.88 670.2 311.23 667.11 293.88 710.52 282.39 665.2 235.74 662.12 275.3 637.19 263.82 591.87"/><circle class="cls-8" cx="140.92" cy="648.9" r="25.08"/><circle class="cls-8" cx="400.56" cy="1011.07" r="21.23"/><circle class="cls-8" cx="1458.79" cy="993.47" r="12.47"/><circle class="cls-8" cx="1717.05" cy="415.64" r="29.79"/><circle class="cls-8" cx="1571.6" cy="558.89" r="24.72"/><circle class="cls-8" cx="1243.13" cy="56.71" r="15.43"/><circle class="cls-8" cx="545.59" cy="63.27" r="15.49"/><circle class="cls-8" cx="1841.67" cy="458.24" r="15.49"/><circle class="cls-9" cx="963.97" cy="544.04" r="528.29"/><circle class="cls-10" cx="963.97" cy="544.04" r="438.89"/><path class="cls-11" d="M582.63,519.13l18.92-6.87C638.06,605,692.27,661.05,762.68,679c52.16,13.27,93.83-.29,94.25-.43l7,19.27c-1.92.64-47.76,15.56-105.71.82C661.86,674.09,609.54,587.47,582.63,519.13Z"/><path class="cls-11" d="M596.21,515.92c12.06-.4,52.72-29.21,34.7-38.84-14.08-6.95-32.16,22.25-38.11,31.29l-1.31-.89c-5.11-5-11.68-9.44-17.64-13.11-10-5.66-61.24-27.8-70.36-15.68-13.06,15.79,55.37,29.78,66.43,32.07-18-3.28-50.65,4.08-57,23,13.77,16.08,50.95-13.22,62.54-22.16-5.71,6.95-26.66,30.1-7.71,31.38,9.81.7,17.54-11.62,21.87-18.77"/><path class="cls-11" d="M1299.94,677.35l-12.57-13c-62.59,58.22-126,80.49-188.54,66.18-46.31-10.59-74.56-38.07-74.84-38.34l-12.57,12.32c1.29,1.28,32.37,31.5,83.81,43.27C1180.82,767.34,1253.8,720.28,1299.94,677.35Z"/><path class="cls-11" d="M1290.3,669.35c-9.45-5.18-31.38-44.24-13.56-44.55,13.72.21,17.54,30.48,19,40l1.37-.18a88.81,88.81,0,0,1,18.78-3.2c10-.43,58.79,2.83,61.66,16,4.68,17.69-54.84,1.11-64.46-1.56,15.52,4.69,38.82,23.63,37,41-16.78,7.1-35.76-30.95-41.75-42.66,2,7.78,10.33,34.43-5.21,27.81-8.07-3.41-9.76-16.22-10.62-23.59"/><path class="cls-11" d="M860.33,659.75S773.09,860.42,844,967.39c0,0,93.54,37.07,222.66,2.83,0,0-44.51-143.3-50.86-296.39Z"/><path class="cls-12" d="M875.92,687.55c29.67,3.42,59.78,5,89.55,2.42A292.92,292.92,0,0,0,1013,677c1-.47,1.92-1,2.89-1.46,0-.56,0-1.12-.07-1.68L860.33,659.75s-3.82,8.8-9.21,23.66Q863.51,685.69,875.92,687.55Z"/><path class="cls-12" d="M968.71,877.1c-50.35,5-102.64-1.54-152.36-10.46,1,36.54,8.62,72,27.67,100.75,0,0,93.54,37.07,222.66,2.83,0,0-13.2-42.52-26.25-106A439.82,439.82,0,0,1,968.71,877.1Z"/><path class="cls-11" d="M1253.43,658.92s36.55-306,264-227.69c222.33,76.55,37.35,231.4,37.35,231.4h-.65L1538.7,919l-259.62.15L1281,820l27.37-160.36Z"/><path class="cls-13" d="M1281,820l27.37-160.36-54.93-.68s21.89-183.26,137.2-229.85c45.67,13.66,97.59,65.54,128.93,217.14,41.72,201.77-35.16,258.17-94.47,272.87l-146,.09Z"/><path class="cls-12" d="M1578,614.05l39,4.49a1490.78,1490.78,0,0,1-37.26,208l-37.93-10.37A1446.9,1446.9,0,0,0,1578,614.05Z"/><path class="cls-12" d="M1525.43,708.45c-5.2,29-12,97.65,16.39,107.73,29.56,10.46,56.46-68.84,60.76-92.83s6.59-108-24.56-109.3C1548,612.83,1530.62,679.46,1525.43,708.45Z"/><path class="cls-11" d="M1564,715.9c-4.42,24.71-13.5,104.09,15.75,110.65,32.15,7.2,58.39-67.76,61.41-95.75,4.27-39.6,7.66-118.06-24.15-112.26C1587.5,623.91,1568.43,691.19,1564,715.9Z"/><path class="cls-14" d="M1584,719.54c-2.09,11.64-6.36,49,7.41,52.1,15.14,3.39,26.58-32,28.91-45.08s3.91-50.38-11.37-52.86C1595.05,671.44,1586.12,707.91,1584,719.54Z"/><ellipse class="cls-11" cx="1563.44" cy="390.77" rx="16.95" ry="17.52" transform="translate(603.61 1685.29) rotate(-67.48)"/><polygon class="cls-11" points="1563.5 395.09 1520.34 466.01 1509.38 444.94 1559.05 393.53 1563.5 395.09"/><g class="cls-15"><path class="cls-12" d="M1298.81,933.86l4.35-.38c-13.73-118.37-10.62-218,9.22-296.13,16.15-63.64,43.47-113.45,81.19-148.06,75.38-69.16,168.1-54.24,169-54.08l.66-4.2c-1-.17-95.68-15.49-172.66,55.08-38.34,35.15-66.08,85.64-82.45,150.07C1288.17,714.79,1285,815,1298.81,933.86Z"/><path class="cls-12" d="M1516.28,487.51q6.75.06,13.87-.07a696.8,696.8,0,0,0,93.06-8.4l-.85-4.2c-1.74.3-174.16,29.19-214.65-22.29-11.57-14.71-11.17-35,1.2-60.42l-4-1.91c-13.13,26.94-13.36,48.77-.69,64.88C1420.77,476.08,1458.43,487,1516.28,487.51Z"/></g><path class="cls-16" d="M1196.11,663.74c-44.59,189.22,68.5,203.25,142,217.75,106.93,21.1,142.23-24.18,165.59-151.38s10.22-171.69-102.19-193.88C1287.42,513.72,1225.76,537.93,1196.11,663.74Z"/><path class="cls-17" d="M1351.23,546.36s-130-51.59-154.14,186.57C1197.09,732.93,1225.63,533.05,1351.23,546.36Z"/><circle class="cls-18" cx="260.94" cy="247.8" r="191.14"/><g class="cls-19"><path class="cls-20" d="M228.15,59.47c-.52.87-1.08,1.72-1.66,2.55-8.76,12.64-22.36,21.61-34.37,30.88-9.57,7.38-25.94,18.1-24.5,32.19,1.85,17.93,23.95,22.84,37.94,27.31,21.1,6.28,46.52,17.28,54.68,39.7,6.65,18.27-2.4,35.3-15,48.13-16.66,17-41.33,22.24-58.43,38.69-8.78,8.45-14.76,23.54-14.89,35.53-.24,23.27,14.69,47.15,26.55,66.29,14.23,23,34.76,44.55,58.77,57.55l1.2.62C154.05,437.58,69.8,352.54,69.8,247.8,69.8,153.42,138.21,75,228.15,59.47Z"/></g><ellipse class="cls-21" cx="385.9" cy="234.29" rx="39.51" ry="46.1"/><ellipse class="cls-22" cx="385.9" cy="234.29" rx="39.51" ry="46.1"/><path class="cls-21" d="M346.39,234.29c0-19.55,10.43-36.24,25.15-42.95a34.55,34.55,0,0,1,10.23-1.57c21.82,0,39.51,20.64,39.51,46.1,0,19.55-10.43,36.24-25.15,42.95a34.23,34.23,0,0,1-10.23,1.57C364.08,280.39,346.39,259.75,346.39,234.29Z"/><path class="cls-23" d="M369.38,237.45a50.45,50.45,0,0,1-10.15,30.85c-7.89-8.43-12.84-20.54-12.84-34a50.44,50.44,0,0,1,10.15-30.84C364.43,211.87,369.38,224,369.38,237.45Z"/><ellipse class="cls-21" cx="265.83" cy="269.86" rx="16.61" ry="22.5"/><path class="cls-23" d="M259.24,286.49a30.4,30.4,0,0,1-.25,3.86c-5.76-3.53-9.76-11.38-9.76-20.49a30.42,30.42,0,0,1,.24-3.86C255.23,269.53,259.24,277.37,259.24,286.49Z"/><circle class="cls-21" cx="293.39" cy="352.36" r="33.73"/><path class="cls-22" d="M325.32,352.36a33.72,33.72,0,0,0-32.83-33.7l.9,0a33.73,33.73,0,1,1,0,67.46l-.9,0A33.73,33.73,0,0,0,325.32,352.36Z"/><path class="cls-23" d="M286.54,385.4a33.76,33.76,0,0,1-26.87-32.34A33.73,33.73,0,0,1,286.54,385.4Z"/><ellipse class="cls-21" cx="108.9" cy="282.68" rx="12.62" ry="17.31"/><path class="cls-23" d="M112.63,273.55A10.94,10.94,0,0,1,121,278a23.31,23.31,0,0,1,.49,4.72c0,9.56-5.65,17.31-12.62,17.31a10.94,10.94,0,0,1-8.4-4.41,23.38,23.38,0,0,1-.49-4.72C100,281.3,105.66,273.55,112.63,273.55Z"/><ellipse class="cls-21" cx="282.44" cy="100.11" rx="21.72" ry="29.78" transform="translate(162.95 374.92) rotate(-86.02)"/><path class="cls-23" d="M267.21,92.61c.39-5.55,3.62-10.39,8.58-13.89a40.06,40.06,0,0,1,8.16-.27c16.41,1.14,29,11.77,28.2,23.73-.38,5.54-3.61,10.38-8.58,13.89a39.94,39.94,0,0,1-8.15.27C279,115.2,266.38,104.57,267.21,92.61Z"/><ellipse class="cls-21" cx="125.5" cy="178.01" rx="14.18" ry="10.34" transform="translate(-90.56 205.51) rotate(-62.07)"/><path class="cls-23" d="M119.3,183.19a9,9,0,0,1-4.39-6.42,18.63,18.63,0,0,1,1.46-3.6c3.67-6.92,10.73-10.36,15.77-7.69a9,9,0,0,1,4.39,6.42,19.28,19.28,0,0,1-1.46,3.6C131.4,182.42,124.34,185.86,119.3,183.19Z"/><ellipse class="cls-21" cx="225.56" cy="188.19" rx="14.18" ry="10.34" transform="translate(-46.37 299.32) rotate(-62.07)"/><path class="cls-23" d="M219.35,193.37A8.93,8.93,0,0,1,215,187a19.79,19.79,0,0,1,1.45-3.6c3.67-6.92,10.73-10.36,15.78-7.68a9,9,0,0,1,4.38,6.41,18.63,18.63,0,0,1-1.46,3.6C231.46,192.6,224.39,196,219.35,193.37Z"/><circle class="cls-21" cx="158.04" cy="343.2" r="2.04"/><circle class="cls-21" cx="325.07" cy="208.82" r="2.04"/><circle class="cls-21" cx="374.82" cy="327.51" r="4.84"/><circle class="cls-21" cx="179.43" cy="235.87" r="4.84"/><circle class="cls-21" cx="302.2" cy="178.01" r="4.84"/><circle class="cls-24" cx="302.2" cy="178.01" r="4.84"/><circle class="cls-21" cx="345.47" cy="334.39" r="2.8"/><circle class="cls-24" cx="345.47" cy="334.39" r="2.8"/><circle class="cls-21" cx="428.2" cy="290.15" r="2.8"/><circle class="cls-24" cx="428.2" cy="290.15" r="2.8"/><circle class="cls-21" cx="102.03" cy="220.82" r="2.8"/><circle class="cls-24" cx="102.03" cy="220.82" r="2.8"/><circle class="cls-21" cx="214.26" cy="327.51" r="4.84"/><circle class="cls-24" cx="214.26" cy="327.51" r="4.84"/><circle class="cls-21" cx="209.43" cy="399.69" r="4.84"/><circle class="cls-24" cx="209.43" cy="399.69" r="4.84"/><circle class="cls-25" cx="375.3" cy="362.42" r="6.48"/><circle class="cls-25" cx="381.77" cy="157.81" r="6.48"/><path class="cls-24" d="M404.37,121.48c66.24,75.07,63.49,189.7-8.28,261.47-68.51,68.52-176.09,74.13-251,16.88C411.29,375.06,415.65,198.79,404.37,121.48Z"/><polygon class="cls-20" points="1159.71 150.53 1142.42 199.04 1191.62 214.26 1140.14 212.82 1140.87 264.31 1126.33 214.91 1077.58 231.51 1120.08 202.42 1089.23 161.18 1130.03 192.62 1159.71 150.53"/><polygon class="cls-10" points="1522.7 146.18 1451.62 121.78 1430.23 193.83 1431.47 118.68 1356.34 120.61 1428.19 98.57 1403.15 27.71 1446.31 89.24 1505.96 43.52 1460.78 103.58 1522.7 146.18"/><polygon class="cls-10" points="546.82 143.23 513.59 131.82 503.59 165.5 504.17 130.37 469.05 131.27 502.64 120.97 490.93 87.85 511.11 116.61 538.99 95.23 517.88 123.31 546.82 143.23"/><ellipse class="cls-24" cx="572.95" cy="931.57" rx="117.41" ry="11.45" transform="translate(-12.74 7.96) rotate(-0.79)"/><polyline class="cls-26" points="591.8 747.67 657.24 770.05 656.92 808.71 591.52 782.46"/><polygon class="cls-26" points="655.98 922.91 666.57 923 661.98 744.47 657.45 744.43 655.98 922.91"/><path class="cls-26" d="M661.33,915.58A14.75,14.75,0,0,1,676,930.45l-29.49-.24A14.74,14.74,0,0,1,661.33,915.58Z"/><polyline class="cls-26" points="566.28 747.46 500.49 768.76 500.18 807.42 566 782.25"/><polygon class="cls-26" points="499.24 921.62 488.65 921.54 496.17 743.1 500.7 743.14 499.24 921.62"/><path class="cls-26" d="M494,914.21a14.73,14.73,0,0,0-14.86,14.62l29.49.25A14.74,14.74,0,0,0,494,914.21Z"/><path class="cls-26" d="M586.84,692.8c.4-.08.84-.2,1.26-.3,2.76.16,5.52.25,8.29.22a100.17,100.17,0,0,0,15-1.37c21.77,83.77-6.86,202.38-6.86,202.38l-53.35-.44s-25.65-114.47-4.83-197.55A89.92,89.92,0,0,0,586.84,692.8Z"/><path class="cls-27" d="M546.18,696.62C552.45,671.14,563,648.51,580,633c16.74,15.8,26.9,38.6,32.76,64.18Z"/><circle class="cls-27" cx="579.01" cy="751.35" r="25.62"/><circle class="cls-28" cx="579.01" cy="751.35" r="18.79"/><path class="cls-29" d="M614.11,840.13c-4.3,31.64-9.59,53.6-9.59,53.6l-53.35-.44s-4.93-22-8.71-53.75c0,0,17.56-14.51,36.39-15S614.11,840.13,614.11,840.13Z"/><g class="cls-30"><path class="cls-7" d="M619,698.18c-.15-.18-14.54-17.73-36.21-19.17-14.45-1-28.86,5.31-42.91,18.65l-2.08-2.2c14.7-13.94,30-20.5,45.22-19.47,23,1.55,37.72,19.52,38.33,20.29Z"/><path class="cls-7" d="M618.65,733.84c-.14-.18-14.53-17.73-36.2-19.16-14.43-1-28.87,5.31-42.91,18.64l-2.08-2.19c14.69-14,29.95-20.52,45.22-19.47,23,1.55,37.72,19.52,38.33,20.28Z"/><path class="cls-31" d="M617.74,845.27c-.14-.18-14.54-17.73-36.21-19.17-14.42-1-28.86,5.32-42.9,18.65l-2.09-2.2c14.7-13.94,30-20.51,45.22-19.47,23,1.55,37.72,19.52,38.34,20.29Z"/><path class="cls-31" d="M614.59,903.53c-.15-.18-14.54-17.73-36.21-19.17-14.45-1-28.86,5.31-42.91,18.65l-2.08-2.2c14.7-13.94,29.94-20.52,45.22-19.47,23,1.55,37.72,19.52,38.33,20.29Z"/></g><path class="cls-24" d="M572.38,893.47l-21.21-.18s-42.53-190.06,26.64-258.08C569.2,665.84,540,785.19,572.38,893.47Z"/><path class="cls-32" d="M845.36,700s61.25,77.34-31.64,130.26"/><path class="cls-32" d="M1036.91,845.8s-118.68-27.44-7.74-137.48"/><polygon class="cls-12" points="865.17 830.97 870.75 777.06 972.98 783.24 972.98 838.17 865.17 830.97"/><ellipse class="cls-11" cx="948.61" cy="810.58" rx="6.77" ry="7" transform="translate(-227.74 1226.64) rotate(-59.99)"/><ellipse class="cls-11" cx="921.99" cy="808.41" rx="6.77" ry="7" transform="translate(-239.16 1202.5) rotate(-59.99)"/><ellipse class="cls-11" cx="891.46" cy="805.48" rx="6.77" ry="7" transform="translate(-251.89 1174.6) rotate(-59.99)"/><polygon class="cls-32" points="873.97 765.1 878.1 728.08 972.98 733.22 972.98 771.17 873.97 765.1"/><line class="cls-32" x1="896.12" y1="766.46" x2="898.4" y2="729.18"/><line class="cls-32" x1="923.47" y1="730.54" x2="921.99" y2="768.04"/><line class="cls-32" x1="952.02" y1="732.08" x2="950.2" y2="769.78"/><path class="cls-27" d="M1218.94,565.67c2.64-49.14-39.6-106.73-39.6-106.73,90.36-80.15,97.88-123.3,97.88-123.3-71.87-53.71-177.62-26.76-177.62-26.76-31.19-58.2-87.32-66.92-87.32-66.92,11,5.82,19.79,15.85,25.38,23.51-27.71-19.77-57.4-27.4-68.33-29.68-3.08-18.42-19.5-72-106.71-94.12,0,0-33.31,61.48-27.5,103.55-31.49,4.82-37,14.76-37,14.76l30.31,1.39-33.23,61.24c-40.59-1-67.78,18.61-67.78,18.61,7.64-2.12,28.76,5.7,28.76,5.7-62.06,14.65-84.91,61.93-84.91,61.93a32.68,32.68,0,0,1,24.61-7.07c-53.24,56.51-11.83,95.31-11.83,95.31-1-4.2,4.95-22.82,4.95-22.82C685.75,530.75,718.36,584,718.36,584c-.94-7.13,4.08-40.55,4.08-40.55-2,38.34,30.45,78.42,30.45,78.42-3.36-6.33-.18-39.77-.18-39.77,7.7,32.47,22,53.14,32.58,64.68.72.8,1.42,1.54,2.11,2.25h-.06l.81.77c2.21,2.24,4.16,4,5.76,5.36,91.64,82.76,208.52,69.54,238.25,56.47-27.7,18.85-55.77,22.13-55.77,22.13C1093.82,744.31,1134.07,674,1134.07,674,1128.18,692.21,1102,728,1102,728c54.34-26.53,80.23-111.46,83.69-123.59,4.41,16.84-7.23,49.74-7.23,49.74,53.36-49.25,9.33-155.09,9.33-155.09C1202.91,514.65,1218.94,565.67,1218.94,565.67ZM1184.4,600.9a18.93,18.93,0,0,1,.76,1.83l-1.1-.31C1184.29,601.44,1184.4,600.9,1184.4,600.9Z"/><g id="_Mouth-2" data-name="+Mouth"><path class="cls-20" d="M927.31,629.84c-44-8.38-78.18-31-78.68-31.34a2,2,0,1,1,2.23-3.31c.72.48,72.79,48.13,141.42,29.39,37.17-10.14,66.79-37.78,88-82.15a2,2,0,1,1,3.6,1.72c-21.77,45.47-52.26,73.83-90.61,84.29C970.8,634.57,948,633.78,927.31,629.84Z"/></g><path class="cls-20" d="M839.29,453.3C865.84,474.66,790,474.92,790,474.92s-9.46-25.91-8.23-46S812.75,431.94,839.29,453.3Z"/><path class="cls-20" d="M1134.6,341.64s69.73-21,105.87,6.66c0,0-32,51.65-68.44,66.49C1172,414.79,1159.31,371.13,1134.6,341.64Z"/><path class="cls-20" d="M878.28,173.06c48.64,18.57,66.85,64.9,58.43,65.39-19.51,1.11-75.17,22.2-75.17,22.2C846.54,230.38,878.28,173.06,878.28,173.06Z"/><path class="cls-20" d="M873.48,398c20.23-43.38,78.69-92.55,114.72-75.83s36,93,15.73,136.39-65.83,65-101.85,48.25S853.25,441.39,873.48,398Z"/><path class="cls-27" d="M885.9,405.08s-4.69,95.22,90,56.53C975.92,461.61,897.77,477.35,885.9,405.08Z"/><path class="cls-20" d="M786.81,352.34s-3.75,66.47,56.15,40.33C843,392.67,793.67,402.93,786.81,352.34Z"/><path class="cls-20" d="M1112.23,564.59S1103,498.66,1049.3,536C1049.3,536,1095.64,516.3,1112.23,564.59Z"/><path class="cls-33" d="M816.35,866.64s111.11,29.43,224.08-2.39"/><path class="cls-33" d="M820.06,910.55s114.73,44.06,228.33-8.58"/><line class="cls-33" x1="944.35" y1="926.96" x2="952.92" y2="984.3"/><line class="cls-33" x1="906.74" y1="926.91" x2="904.09" y2="877.88"/><line class="cls-33" x1="961.4" y1="877.22" x2="967.03" y2="924.92"/><path class="cls-4" d="M1663.78,232.63a234.45,234.45,0,0,1-83,48.64c-15.88,5.3-32.91,8.91-49.33,5.65s-32.06-14.69-36.2-30.91,6.88-35.87,23.55-37.36c18.81-1.69,33.31,19.67,31.14,38.43s-15.69,34.12-29.88,46.57a264.28,264.28,0,0,1-146,63.68"/></g></g></svg>